<svg width="800" height="480" viewBox="0 0 800 480" fill="none" xmlns="http://www.w3.org/2000/svg">
  <rect width="800" height="480" rx="28" fill="#090C14"/>
  <rect width="800" height="480" rx="28" fill="url(#bg)"/>
  <path d="M146 86C196 118 210 166 188 228C166 290 112 334 52 342V110C92 100 121 94 146 86Z" fill="#F0625D" fill-opacity="0.72"/>
  <path d="M648 72C698 110 730 168 734 250C738 332 704 394 624 430" stroke="#FFCC73" stroke-width="18" stroke-linecap="round" stroke-dasharray="10 20"/>
  <circle cx="402" cy="302" r="52" fill="#69E1DA"/>
  <circle cx="402" cy="302" r="22" fill="#EFFFFC"/>
  <rect x="236" y="108" width="328" height="18" rx="9" fill="#202738"/>
  <rect x="236" y="134" width="328" height="18" rx="9" fill="#202738"/>
  <rect x="236" y="160" width="328" height="18" rx="9" fill="#202738"/>
  <rect x="236" y="108" width="206" height="18" rx="9" fill="#F8B75A"/>
  <text x="48" y="428" fill="#F4F7FF" font-family="Arial, sans-serif" font-size="54" font-weight="700">Boss Dodge</text>
  <defs>
    <linearGradient id="bg" x1="96" y1="64" x2="700" y2="432" gradientUnits="userSpaceOnUse">
      <stop stop-color="#20161D"/>
      <stop offset="0.5" stop-color="#0D1320"/>
      <stop offset="1" stop-color="#121E2A"/>
    </linearGradient>
  </defs>
</svg>
